<svg width="17" height="24" viewBox="0 0 17 24" fill="none" xmlns="http://www.w3.org/2000/svg">
<path d="M6.99818 22.4999C4.93884 21.8699 0.724702 20.1675 1.05653 16.2559C1.47132 11.3666 2.62788 10.9544 2.42969 9.06627C2.35334 8.33893 2.35192 8.08521 2.37097 8.01763C2.39147 7.94487 2.47068 8.08813 2.47068 8.08813C2.53998 8.19338 4.21672 9.62237 4.09311 11.5225C4.5382 11.1758 5.44602 9.88852 5.51661 7.51287C5.60484 4.54331 6.6256 3.46638 7.18768 3.05054C7.63735 2.71786 8.47488 2.24314 8.83745 2.04737C8.63592 2.59356 8.35021 3.93825 8.81958 4.94748C9.4063 6.20902 10.5504 7.82342 11.1055 8.52569C11.6607 9.22796 13.3613 11.335 12.9639 13.3941C13.3503 13.117 14.0977 12.1432 13.9961 10.4653C13.9366 9.48292 13.9026 9.04372 13.8844 8.88114C13.8783 8.87308 13.8722 8.86509 13.8661 8.85718C13.8665 8.78959 13.8715 8.76606 13.8844 8.88114C14.8823 10.1975 16.6439 13.569 15.8459 16.7314C14.8422 20.7087 13.4411 21.6444 10.4984 22.4999C8.99838 23.4999 6.26642 22.0761 6.99818 22.4999Z" fill="#FC5200"/>
<path d="M6.99818 22.4999C4.93884 21.8699 0.724702 20.1675 1.05653 16.2559C1.47132 11.3666 2.62788 10.9544 2.42969 9.06627C2.35334 8.33893 2.35192 8.08521 2.37097 8.01763C2.39147 7.94487 2.47068 8.08813 2.47068 8.08813C2.53998 8.19338 4.21672 9.62237 4.09311 11.5225C4.5382 11.1758 5.44602 9.88852 5.51661 7.51287C5.60484 4.54331 6.6256 3.46638 7.18768 3.05054C7.63735 2.71786 8.47488 2.24314 8.83745 2.04737C8.63592 2.59356 8.35021 3.93825 8.81958 4.94748C9.40629 6.20902 10.5504 7.82342 11.1055 8.52569C11.6607 9.22796 13.3613 11.335 12.9639 13.3941C13.3503 13.117 14.0977 12.1432 13.9961 10.4653C13.8945 8.78747 13.8671 8.69412 13.8661 8.85718C14.8606 10.1562 16.6488 13.5496 15.8459 16.7314C14.8422 20.7087 13.4411 21.6444 10.4984 22.4999C8.99838 23.4999 6.26642 22.0761 6.99818 22.4999Z" stroke="black"/>
</svg>
